<?xml version="1.0" encoding="UTF-8" standalone="no"?>
<!DOCTYPE svg PUBLIC "-//W3C//DTD SVG 1.1//EN"
 "http://www.w3.org/Graphics/SVG/1.1/DTD/svg11.dtd">
<!-- Generated by graphviz version 15.1.0 (20260618.0150)
 -->
<!-- Title: Task Pages: 1 -->
<svg width="290pt" height="84pt"
 viewBox="0.00 0.00 290.00 84.00" xmlns="http://www.w3.org/2000/svg" xmlns:xlink="http://www.w3.org/1999/xlink">
<g id="graph0" class="graph" transform="scale(1 1) rotate(0) translate(4 80)">
<title>Task</title>
<!-- Node1 -->
<g id="Node000001" class="node">
<title>Node1</title>
<g id="a_Node000001"><a xlink:title=" ">
<polygon fill="#999999" stroke="#666666" points="167.38,-76 130.38,-76 130.38,-56 167.38,-56 167.38,-76"/>
<text xml:space="preserve" text-anchor="middle" x="148.88" y="-62.5" font-family="Helvetica,sans-Serif" font-size="10.00">Task</text>
</a>
</g>
</g>
<!-- Node2 -->
<g id="Node000002" class="node">
<title>Node2</title>
<g id="a_Node000002"><a xlink:href="class_load_cell_manager.html" target="_top" xlink:title="This class reads the force from an HX711 connected to the load cell.">
<polygon fill="white" stroke="#666666" points="91.75,-20 0,-20 0,0 91.75,0 91.75,-20"/>
<text xml:space="preserve" text-anchor="middle" x="45.88" y="-6.5" font-family="Helvetica,sans-Serif" font-size="10.00">LoadCellManager</text>
</a>
</g>
</g>
<!-- Node1&#45;&gt;Node2 -->
<g id="edge1_Node000001_Node000002" class="edge">
<title>Node1&#45;&gt;Node2</title>
<g id="a_edge1_Node000001_Node000002"><a xlink:title=" ">
<path fill="none" stroke="#63b8ff" d="M120.93,-50.35C102.8,-40.84 79.71,-28.74 63.96,-20.48"/>
<polygon fill="#63b8ff" stroke="#63b8ff" points="119.11,-53.35 129.59,-54.89 122.36,-47.15 119.11,-53.35"/>
</a>
</g>
</g>
<!-- Node3 -->
<g id="Node000003" class="node">
<title>Node3</title>
<g id="a_Node000003"><a xlink:href="class_motor_manager.html" target="_top" xlink:title="This class controls the stepper motor.">
<polygon fill="white" stroke="#666666" points="188,-20 109.75,-20 109.75,0 188,0 188,-20"/>
<text xml:space="preserve" text-anchor="middle" x="148.88" y="-6.5" font-family="Helvetica,sans-Serif" font-size="10.00">MotorManager</text>
</a>
</g>
</g>
<!-- Node1&#45;&gt;Node3 -->
<g id="edge2_Node000001_Node000003" class="edge">
<title>Node1&#45;&gt;Node3</title>
<g id="a_edge2_Node000001_Node000003"><a xlink:title=" ">
<path fill="none" stroke="#63b8ff" d="M148.88,-44.13C148.88,-35.9 148.88,-26.85 148.88,-20.3"/>
<polygon fill="#63b8ff" stroke="#63b8ff" points="145.38,-44.08 148.88,-54.08 152.38,-44.08 145.38,-44.08"/>
</a>
</g>
</g>
<!-- Node4 -->
<g id="Node000004" class="node">
<title>Node4</title>
<g id="a_Node000004"><a xlink:href="class_state_machine.html" target="_top" xlink:title=" ">
<polygon fill="white" stroke="#bfbfbf" points="281.88,-20 205.88,-20 205.88,0 281.88,0 281.88,-20"/>
<text xml:space="preserve" text-anchor="middle" x="243.88" y="-6.5" font-family="Helvetica,sans-Serif" font-size="10.00">StateMachine</text>
</a>
</g>
</g>
<!-- Node1&#45;&gt;Node4 -->
<g id="edge3_Node000001_Node000004" class="edge">
<title>Node1&#45;&gt;Node4</title>
<g id="a_edge3_Node000001_Node000004"><a xlink:title=" ">
<path fill="none" stroke="#63b8ff" d="M175.12,-50.08C191.77,-40.62 212.81,-28.66 227.2,-20.48"/>
<polygon fill="#63b8ff" stroke="#63b8ff" points="173.7,-46.86 166.74,-54.85 177.16,-52.95 173.7,-46.86"/>
</a>
</g>
</g>
</g>
</svg>
