<?xml version="1.0" encoding="UTF-8" standalone="no"?>
<!DOCTYPE svg PUBLIC "-//W3C//DTD SVG 1.1//EN"
 "http://www.w3.org/Graphics/SVG/1.1/DTD/svg11.dtd">
<!-- Generated by graphviz version 15.1.0 (20260618.0150)
 -->
<!-- Title: Graphical Class Hierarchy Pages: 1 -->
<svg width="173pt" height="104pt"
 viewBox="0.00 0.00 173.00 104.00" xmlns="http://www.w3.org/2000/svg" xmlns:xlink="http://www.w3.org/1999/xlink">
<g id="graph0" class="graph" transform="scale(1 1) rotate(0) translate(4 100)">
<title>Graphical Class Hierarchy</title>
<!-- Node0 -->
<g id="Node000000" class="node">
<title>Node0</title>
<g id="a_Node000000"><a xlink:href="class_task.html" target="_top" xlink:title=" ">
<polygon fill="white" stroke="#666666" points="37,-58 0,-58 0,-38 37,-38 37,-58"/>
<text xml:space="preserve" text-anchor="middle" x="18.5" y="-44.5" font-family="Helvetica,sans-Serif" font-size="10.00">Task</text>
</a>
</g>
</g>
<!-- Node1 -->
<g id="Node000001" class="node">
<title>Node1</title>
<g id="a_Node000001"><a xlink:href="class_load_cell_manager.html" target="_top" xlink:title="This class reads the force from an HX711 connected to the load cell.">
<polygon fill="white" stroke="#666666" points="164.75,-96 73,-96 73,-76 164.75,-76 164.75,-96"/>
<text xml:space="preserve" text-anchor="middle" x="118.88" y="-82.5" font-family="Helvetica,sans-Serif" font-size="10.00">LoadCellManager</text>
</a>
</g>
</g>
<!-- Node0&#45;&gt;Node1 -->
<g id="edge1_Node000000_Node000001" class="edge">
<title>Node0&#45;&gt;Node1</title>
<g id="a_edge1_Node000000_Node000001"><a xlink:title=" ">
<path fill="none" stroke="#63b8ff" d="M47.73,-58.9C61.27,-64.13 77.41,-70.37 90.79,-75.54"/>
<polygon fill="#63b8ff" stroke="#63b8ff" points="49.09,-55.68 38.5,-55.34 46.57,-62.21 49.09,-55.68"/>
</a>
</g>
</g>
<!-- Node2 -->
<g id="Node000002" class="node">
<title>Node2</title>
<g id="a_Node000002"><a xlink:href="class_motor_manager.html" target="_top" xlink:title="This class controls the stepper motor.">
<polygon fill="white" stroke="#666666" points="158,-58 79.75,-58 79.75,-38 158,-38 158,-58"/>
<text xml:space="preserve" text-anchor="middle" x="118.88" y="-44.5" font-family="Helvetica,sans-Serif" font-size="10.00">MotorManager</text>
</a>
</g>
</g>
<!-- Node0&#45;&gt;Node2 -->
<g id="edge2_Node000000_Node000002" class="edge">
<title>Node0&#45;&gt;Node2</title>
<g id="a_edge2_Node000000_Node000002"><a xlink:title=" ">
<path fill="none" stroke="#63b8ff" d="M48.59,-48C58.33,-48 69.33,-48 79.65,-48"/>
<polygon fill="#63b8ff" stroke="#63b8ff" points="48.6,-44.5 38.6,-48 48.6,-51.5 48.6,-44.5"/>
</a>
</g>
</g>
<!-- Node3 -->
<g id="Node000003" class="node">
<title>Node3</title>
<g id="a_Node000003"><a xlink:href="class_state_machine.html" target="_top" xlink:title=" ">
<polygon fill="white" stroke="#666666" points="156.88,-20 80.88,-20 80.88,0 156.88,0 156.88,-20"/>
<text xml:space="preserve" text-anchor="middle" x="118.88" y="-6.5" font-family="Helvetica,sans-Serif" font-size="10.00">StateMachine</text>
</a>
</g>
</g>
<!-- Node0&#45;&gt;Node3 -->
<g id="edge3_Node000000_Node000003" class="edge">
<title>Node0&#45;&gt;Node3</title>
<g id="a_edge3_Node000000_Node000003"><a xlink:title=" ">
<path fill="none" stroke="#63b8ff" d="M47.73,-37.1C61.27,-31.87 77.41,-25.63 90.79,-20.46"/>
<polygon fill="#63b8ff" stroke="#63b8ff" points="46.57,-33.79 38.5,-40.66 49.09,-40.32 46.57,-33.79"/>
</a>
</g>
</g>
</g>
</svg>
