<?xml version="1.0" encoding="UTF-8" standalone="no"?>
<!DOCTYPE svg PUBLIC "-//W3C//DTD SVG 1.1//EN"
 "http://www.w3.org/Graphics/SVG/1.1/DTD/svg11.dtd">
<!-- Generated by graphviz version 15.1.0 (20260618.0150)
 -->
<!-- Title: MotorManager Pages: 1 -->
<svg width="139pt" height="96pt"
 viewBox="0.00 0.00 139.00 96.00" xmlns="http://www.w3.org/2000/svg" xmlns:xlink="http://www.w3.org/1999/xlink">
<g id="graph0" class="graph" transform="scale(1 1) rotate(0) translate(4 92)">
<title>MotorManager</title>
<!-- Node1 -->
<g id="Node000001" class="node">
<title>Node1</title>
<g id="a_Node000001"><a xlink:title="This class controls the stepper motor.">
<polygon fill="#999999" stroke="#666666" points="92.62,-20 14.38,-20 14.38,0 92.62,0 92.62,-20"/>
<text xml:space="preserve" text-anchor="middle" x="53.5" y="-6.5" font-family="Helvetica,sans-Serif" font-size="10.00">MotorManager</text>
</a>
</g>
</g>
<!-- Node2 -->
<g id="Node000002" class="node">
<title>Node2</title>
<g id="a_Node000002"><a xlink:href="class_task.html" target="_top" xlink:title=" ">
<polygon fill="white" stroke="#bfbfbf" points="37,-88 0,-88 0,-68 37,-68 37,-88"/>
<text xml:space="preserve" text-anchor="middle" x="18.5" y="-74.5" font-family="Helvetica,sans-Serif" font-size="10.00">Task</text>
</a>
</g>
</g>
<!-- Node2&#45;&gt;Node1 -->
<g id="edge1_Node000001_Node000002" class="edge">
<title>Node2&#45;&gt;Node1</title>
<g id="a_edge1_Node000001_Node000002"><a xlink:title=" ">
<path fill="none" stroke="#63b8ff" d="M28.89,-57.4C35.37,-45.2 43.4,-30.04 48.49,-20.44"/>
<polygon fill="#63b8ff" stroke="#63b8ff" points="25.82,-55.73 24.22,-66.21 32,-59.01 25.82,-55.73"/>
</a>
</g>
</g>
<!-- Node3 -->
<g id="Node000003" class="node">
<title>Node3</title>
<g id="a_Node000003"><a xlink:href="struct_motor_states.html" target="_top" xlink:title=" ">
<polygon fill="white" stroke="#bfbfbf" points="124.12,-88 54.88,-88 54.88,-68 124.12,-68 124.12,-88"/>
<text xml:space="preserve" text-anchor="middle" x="89.5" y="-74.5" font-family="Helvetica,sans-Serif" font-size="10.00">MotorStates</text>
</a>
</g>
</g>
<!-- Node3&#45;&gt;Node1 -->
<g id="edge2_Node000001_Node000003" class="edge">
<title>Node3&#45;&gt;Node1</title>
<g id="a_edge2_Node000001_Node000003"><a xlink:title=" ">
<path fill="none" stroke="#9a32cd" stroke-dasharray="5,2" d="M79.02,-57.78C72.32,-45.51 63.94,-30.14 58.65,-20.44"/>
<polygon fill="#9a32cd" stroke="#9a32cd" points="75.76,-59.11 83.62,-66.22 81.9,-55.76 75.76,-59.11"/>
</a>
</g>
<text xml:space="preserve" text-anchor="middle" x="102.85" y="-40.5" font-family="Helvetica,sans-Serif" font-size="10.00" fill="grey"> motorStates</text>
</g>
</g>
</svg>
