<?xml version="1.0" encoding="UTF-8" standalone="no"?>
<!DOCTYPE svg PUBLIC "-//W3C//DTD SVG 1.1//EN"
 "http://www.w3.org/Graphics/SVG/1.1/DTD/svg11.dtd">
<!-- Generated by graphviz version 15.1.0 (20260618.0150)
 -->
<!-- Title: Application Pages: 1 -->
<svg width="426pt" height="232pt"
 viewBox="0.00 0.00 426.00 232.00" xmlns="http://www.w3.org/2000/svg" xmlns:xlink="http://www.w3.org/1999/xlink">
<g id="graph0" class="graph" transform="scale(1 1) rotate(0) translate(4 228)">
<title>Application</title>
<!-- Node1 -->
<g id="Node000001" class="node">
<title>Node1</title>
<g id="a_Node000001"><a xlink:title=" ">
<polygon fill="#999999" stroke="#666666" points="254.88,-20 190.88,-20 190.88,0 254.88,0 254.88,-20"/>
<text xml:space="preserve" text-anchor="middle" x="222.88" y="-6.5" font-family="Helvetica,sans-Serif" font-size="10.00">Application</text>
</a>
</g>
</g>
<!-- Node2 -->
<g id="Node000002" class="node">
<title>Node2</title>
<g id="a_Node000002"><a xlink:href="class_event_manager.html" target="_top" xlink:title=" ">
<polygon fill="white" stroke="#bfbfbf" points="124.38,-156 45.38,-156 45.38,-136 124.38,-136 124.38,-156"/>
<text xml:space="preserve" text-anchor="middle" x="84.88" y="-142.5" font-family="Helvetica,sans-Serif" font-size="10.00">EventManager</text>
</a>
</g>
</g>
<!-- Node2&#45;&gt;Node1 -->
<g id="edge1_Node000001_Node000002" class="edge">
<title>Node2&#45;&gt;Node1</title>
<g id="a_edge1_Node000001_Node000002"><a xlink:title=" ">
<path fill="none" stroke="#9a32cd" stroke-dasharray="5,2" d="M70.36,-126.47C59.29,-109.92 47.88,-85.63 60.38,-68 89.86,-26.42 152.15,-14.94 190.47,-11.91"/>
<polygon fill="#9a32cd" stroke="#9a32cd" points="67.42,-128.37 76.11,-134.42 73.09,-124.27 67.42,-128.37"/>
</a>
</g>
<text xml:space="preserve" text-anchor="middle" x="92.62" y="-74.5" font-family="Helvetica,sans-Serif" font-size="10.00" fill="grey"> eventManager</text>
</g>
<!-- Node8 -->
<g id="Node000008" class="node">
<title>Node8</title>
<g id="a_Node000008"><a xlink:href="class_state_machine.html" target="_top" xlink:title=" ">
<polygon fill="white" stroke="#bfbfbf" points="309.88,-88 233.88,-88 233.88,-68 309.88,-68 309.88,-88"/>
<text xml:space="preserve" text-anchor="middle" x="271.88" y="-74.5" font-family="Helvetica,sans-Serif" font-size="10.00">StateMachine</text>
</a>
</g>
</g>
<!-- Node2&#45;&gt;Node8 -->
<g id="edge10_Node000008_Node000002" class="edge">
<title>Node2&#45;&gt;Node8</title>
<g id="a_edge10_Node000008_Node000002"><a xlink:title=" ">
<path fill="none" stroke="#9a32cd" stroke-dasharray="5,2" d="M109.92,-130.14C124.3,-122.1 142.91,-112.52 160.38,-106 173.67,-101.04 206.71,-93.23 233.4,-87.29"/>
<polygon fill="#9a32cd" stroke="#9a32cd" points="108.54,-126.89 101.59,-134.9 112.01,-132.97 108.54,-126.89"/>
</a>
</g>
<text xml:space="preserve" text-anchor="middle" x="192.62" y="-108.5" font-family="Helvetica,sans-Serif" font-size="10.00" fill="grey"> eventManager</text>
</g>
<!-- Node3 -->
<g id="Node000003" class="node">
<title>Node3</title>
<g id="a_Node000003"><a xlink:href="struct_event_manager_1_1state_transition_rule.html" target="_top" xlink:title=" ">
<polygon fill="white" stroke="#bfbfbf" points="169.75,-224 0,-224 0,-204 169.75,-204 169.75,-224"/>
<text xml:space="preserve" text-anchor="middle" x="84.88" y="-210.5" font-family="Helvetica,sans-Serif" font-size="10.00">EventManager::stateTransitionRule</text>
</a>
</g>
</g>
<!-- Node3&#45;&gt;Node2 -->
<g id="edge2_Node000002_Node000003" class="edge">
<title>Node3&#45;&gt;Node2</title>
<g id="a_edge2_Node000002_Node000003"><a xlink:title=" ">
<path fill="none" stroke="#9a32cd" stroke-dasharray="5,2" d="M84.88,-192.28C84.88,-180.27 84.88,-165.74 84.88,-156.44"/>
<polygon fill="#9a32cd" stroke="#9a32cd" points="81.38,-192.03 84.88,-202.03 88.38,-192.03 81.38,-192.03"/>
</a>
</g>
<text xml:space="preserve" text-anchor="middle" x="121.25" y="-176.5" font-family="Helvetica,sans-Serif" font-size="10.00" fill="grey"> stateTransitions</text>
</g>
<!-- Node4 -->
<g id="Node000004" class="node">
<title>Node4</title>
<g id="a_Node000004"><a xlink:href="class_button_manager.html" target="_top" xlink:title=" ">
<polygon fill="white" stroke="#bfbfbf" points="215.88,-88 133.88,-88 133.88,-68 215.88,-68 215.88,-88"/>
<text xml:space="preserve" text-anchor="middle" x="174.88" y="-74.5" font-family="Helvetica,sans-Serif" font-size="10.00">ButtonManager</text>
</a>
</g>
</g>
<!-- Node4&#45;&gt;Node1 -->
<g id="edge3_Node000001_Node000004" class="edge">
<title>Node4&#45;&gt;Node1</title>
<g id="a_edge3_Node000001_Node000004"><a xlink:title=" ">
<path fill="none" stroke="#9a32cd" stroke-dasharray="5,2" d="M173.88,-56.38C174.43,-50.08 175.95,-43.4 179.38,-38 184.13,-30.49 191.81,-24.73 199.4,-20.5"/>
<polygon fill="#9a32cd" stroke="#9a32cd" points="170.38,-56.03 173.79,-66.07 177.38,-56.1 170.38,-56.03"/>
</a>
</g>
<text xml:space="preserve" text-anchor="middle" x="213.12" y="-40.5" font-family="Helvetica,sans-Serif" font-size="10.00" fill="grey"> buttonManager</text>
</g>
<!-- Node5 -->
<g id="Node000005" class="node">
<title>Node5</title>
<g id="a_Node000005"><a xlink:href="class_motor_manager.html" target="_top" xlink:title="This class controls the stepper motor.">
<polygon fill="white" stroke="#666666" points="347,-156 268.75,-156 268.75,-136 347,-136 347,-156"/>
<text xml:space="preserve" text-anchor="middle" x="307.88" y="-142.5" font-family="Helvetica,sans-Serif" font-size="10.00">MotorManager</text>
</a>
</g>
</g>
<!-- Node5&#45;&gt;Node1 -->
<g id="edge4_Node000001_Node000005" class="edge">
<title>Node5&#45;&gt;Node1</title>
<g id="a_edge4_Node000001_Node000005"><a xlink:title=" ">
<path fill="none" stroke="#9a32cd" stroke-dasharray="5,2" d="M335.06,-128.42C338.21,-125.36 340.97,-121.88 342.88,-118 355.13,-93.06 362.9,-78.22 320.88,-38 303.28,-21.16 276.18,-14.63 254.93,-12.19"/>
<polygon fill="#9a32cd" stroke="#9a32cd" points="332.94,-125.64 327.33,-134.63 337.32,-131.1 332.94,-125.64"/>
</a>
</g>
<text xml:space="preserve" text-anchor="middle" x="385.21" y="-74.5" font-family="Helvetica,sans-Serif" font-size="10.00" fill="grey"> motorManager</text>
</g>
<!-- Node5&#45;&gt;Node8 -->
<g id="edge9_Node000008_Node000005" class="edge">
<title>Node5&#45;&gt;Node8</title>
<g id="a_edge9_Node000008_Node000005"><a xlink:title=" ">
<path fill="none" stroke="#9a32cd" stroke-dasharray="5,2" d="M281.46,-128.79C278.13,-125.62 275.17,-122.02 273.12,-118 268.39,-108.7 268.9,-96.48 270.06,-88.21"/>
<polygon fill="#9a32cd" stroke="#9a32cd" points="279.02,-131.32 289.03,-134.79 283.37,-125.84 279.02,-131.32"/>
</a>
</g>
<text xml:space="preserve" text-anchor="middle" x="308" y="-108.5" font-family="Helvetica,sans-Serif" font-size="10.00" fill="grey"> motorController</text>
</g>
<!-- Node6 -->
<g id="Node000006" class="node">
<title>Node6</title>
<g id="a_Node000006"><a xlink:href="class_task.html" target="_top" xlink:title=" ">
<polygon fill="white" stroke="#bfbfbf" points="257.38,-224 220.38,-224 220.38,-204 257.38,-204 257.38,-224"/>
<text xml:space="preserve" text-anchor="middle" x="238.88" y="-210.5" font-family="Helvetica,sans-Serif" font-size="10.00">Task</text>
</a>
</g>
</g>
<!-- Node6&#45;&gt;Node5 -->
<g id="edge5_Node000005_Node000006" class="edge">
<title>Node6&#45;&gt;Node5</title>
<g id="a_edge5_Node000005_Node000006"><a xlink:title=" ">
<path fill="none" stroke="#63b8ff" d="M257.05,-195.61C270.16,-183.07 287.36,-166.63 298.01,-156.44"/>
<polygon fill="#63b8ff" stroke="#63b8ff" points="254.66,-193.06 249.85,-202.5 259.5,-198.11 254.66,-193.06"/>
</a>
</g>
</g>
<!-- Node6&#45;&gt;Node8 -->
<g id="edge8_Node000008_Node000006" class="edge">
<title>Node6&#45;&gt;Node8</title>
<g id="a_edge8_Node000008_Node000006"><a xlink:title=" ">
<path fill="none" stroke="#63b8ff" d="M243.85,-192.8C251.1,-163.34 264.3,-109.76 269.59,-88.27"/>
<polygon fill="#63b8ff" stroke="#63b8ff" points="240.5,-191.77 241.51,-202.32 247.29,-193.45 240.5,-191.77"/>
</a>
</g>
</g>
<!-- Node7 -->
<g id="Node000007" class="node">
<title>Node7</title>
<g id="a_Node000007"><a xlink:href="struct_motor_states.html" target="_top" xlink:title=" ">
<polygon fill="white" stroke="#bfbfbf" points="344.5,-224 275.25,-224 275.25,-204 344.5,-204 344.5,-224"/>
<text xml:space="preserve" text-anchor="middle" x="309.88" y="-210.5" font-family="Helvetica,sans-Serif" font-size="10.00">MotorStates</text>
</a>
</g>
</g>
<!-- Node7&#45;&gt;Node5 -->
<g id="edge6_Node000005_Node000007" class="edge">
<title>Node7&#45;&gt;Node5</title>
<g id="a_edge6_Node000005_Node000007"><a xlink:title=" ">
<path fill="none" stroke="#9a32cd" stroke-dasharray="5,2" d="M309.25,-192.28C308.88,-180.27 308.44,-165.74 308.16,-156.44"/>
<polygon fill="#9a32cd" stroke="#9a32cd" points="305.74,-192.14 309.54,-202.03 312.74,-191.93 305.74,-192.14"/>
</a>
</g>
<text xml:space="preserve" text-anchor="middle" x="337.18" y="-176.5" font-family="Helvetica,sans-Serif" font-size="10.00" fill="grey"> motorStates</text>
</g>
<!-- Node8&#45;&gt;Node1 -->
<g id="edge7_Node000001_Node000008" class="edge">
<title>Node8&#45;&gt;Node1</title>
<g id="a_edge7_Node000001_Node000008"><a xlink:title=" ">
<path fill="none" stroke="#9a32cd" stroke-dasharray="5,2" d="M260.72,-58.3C256.58,-51.73 251.72,-44.39 246.88,-38 242.18,-31.8 236.4,-25.27 231.69,-20.19"/>
<polygon fill="#9a32cd" stroke="#9a32cd" points="257.51,-59.75 265.71,-66.45 263.48,-56.1 257.51,-59.75"/>
</a>
</g>
<text xml:space="preserve" text-anchor="middle" x="285.71" y="-40.5" font-family="Helvetica,sans-Serif" font-size="10.00" fill="grey"> stateMachine</text>
</g>
</g>
</svg>
