<?xml version="1.0" encoding="UTF-8" standalone="no"?>
<!DOCTYPE svg PUBLIC "-//W3C//DTD SVG 1.1//EN"
 "http://www.w3.org/Graphics/SVG/1.1/DTD/svg11.dtd">
<!-- Generated by graphviz version 15.1.0 (20260618.0150)
 -->
<!-- Title: LoadCellManager Pages: 1 -->
<svg width="241pt" height="164pt"
 viewBox="0.00 0.00 241.00 164.00" xmlns="http://www.w3.org/2000/svg" xmlns:xlink="http://www.w3.org/1999/xlink">
<g id="graph0" class="graph" transform="scale(1 1) rotate(0) translate(4 160)">
<title>LoadCellManager</title>
<!-- Node1 -->
<g id="Node000001" class="node">
<title>Node1</title>
<g id="a_Node000001"><a xlink:title="This class reads the force from an HX711 connected to the load cell.">
<polygon fill="#999999" stroke="#666666" points="131.38,-20 39.62,-20 39.62,0 131.38,0 131.38,-20"/>
<text xml:space="preserve" text-anchor="middle" x="85.5" y="-6.5" font-family="Helvetica,sans-Serif" font-size="10.00">LoadCellManager</text>
</a>
</g>
</g>
<!-- Node2 -->
<g id="Node000002" class="node">
<title>Node2</title>
<g id="a_Node000002"><a xlink:href="class_task.html" target="_top" xlink:title=" ">
<polygon fill="white" stroke="#bfbfbf" points="37,-156 0,-156 0,-136 37,-136 37,-156"/>
<text xml:space="preserve" text-anchor="middle" x="18.5" y="-142.5" font-family="Helvetica,sans-Serif" font-size="10.00">Task</text>
</a>
</g>
</g>
<!-- Node2&#45;&gt;Node1 -->
<g id="edge1_Node000001_Node000002" class="edge">
<title>Node2&#45;&gt;Node1</title>
<g id="a_edge1_Node000001_Node000002"><a xlink:title=" ">
<path fill="none" stroke="#63b8ff" d="M21,-124.22C23.54,-108.19 28.43,-85.82 37.5,-68 47.13,-49.09 64.12,-31.02 75.09,-20.47"/>
<polygon fill="#63b8ff" stroke="#63b8ff" points="17.55,-123.63 19.64,-134.01 24.48,-124.59 17.55,-123.63"/>
</a>
</g>
</g>
<!-- Node4 -->
<g id="Node000004" class="node">
<title>Node4</title>
<g id="a_Node000004"><a xlink:href="class_motor_manager.html" target="_top" xlink:title="This class controls the stepper motor.">
<polygon fill="white" stroke="#666666" points="124.62,-88 46.38,-88 46.38,-68 124.62,-68 124.62,-88"/>
<text xml:space="preserve" text-anchor="middle" x="85.5" y="-74.5" font-family="Helvetica,sans-Serif" font-size="10.00">MotorManager</text>
</a>
</g>
</g>
<!-- Node2&#45;&gt;Node4 -->
<g id="edge4_Node000004_Node000002" class="edge">
<title>Node2&#45;&gt;Node4</title>
<g id="a_edge4_Node000004_Node000002"><a xlink:title=" ">
<path fill="none" stroke="#63b8ff" d="M36.15,-127.61C48.88,-115.07 65.58,-98.63 75.92,-88.44"/>
<polygon fill="#63b8ff" stroke="#63b8ff" points="33.85,-124.97 29.18,-134.48 38.76,-129.96 33.85,-124.97"/>
</a>
</g>
</g>
<!-- Node3 -->
<g id="Node000003" class="node">
<title>Node3</title>
<g id="a_Node000003"><a xlink:href="struct_load_cell_states.html" target="_top" xlink:title="Internal states that determine behaviour of the load cell manager.">
<polygon fill="white" stroke="#666666" points="225.88,-88 143.12,-88 143.12,-68 225.88,-68 225.88,-88"/>
<text xml:space="preserve" text-anchor="middle" x="184.5" y="-74.5" font-family="Helvetica,sans-Serif" font-size="10.00">LoadCellStates</text>
</a>
</g>
</g>
<!-- Node3&#45;&gt;Node1 -->
<g id="edge2_Node000001_Node000003" class="edge">
<title>Node3&#45;&gt;Node1</title>
<g id="a_edge2_Node000001_Node000003"><a xlink:title=" ">
<path fill="none" stroke="#9a32cd" stroke-dasharray="5,2" d="M173.15,-58.15C168.15,-51.08 161.75,-43.44 154.5,-38 144.32,-30.35 131.69,-24.58 120.03,-20.38"/>
<polygon fill="#9a32cd" stroke="#9a32cd" points="170.21,-60.05 178.6,-66.52 176.08,-56.23 170.21,-60.05"/>
</a>
</g>
<text xml:space="preserve" text-anchor="middle" x="199.5" y="-40.5" font-family="Helvetica,sans-Serif" font-size="10.00" fill="grey"> loadCellStates</text>
</g>
<!-- Node4&#45;&gt;Node1 -->
<g id="edge3_Node000001_Node000004" class="edge">
<title>Node4&#45;&gt;Node1</title>
<g id="a_edge3_Node000001_Node000004"><a xlink:title=" ">
<path fill="none" stroke="#9a32cd" stroke-dasharray="5,2" d="M85.5,-56.28C85.5,-44.27 85.5,-29.74 85.5,-20.44"/>
<polygon fill="#9a32cd" stroke="#9a32cd" points="82,-56.03 85.5,-66.03 89,-56.03 82,-56.03"/>
</a>
</g>
<text xml:space="preserve" text-anchor="middle" x="118.12" y="-40.5" font-family="Helvetica,sans-Serif" font-size="10.00" fill="grey"> motorManager</text>
</g>
<!-- Node5 -->
<g id="Node000005" class="node">
<title>Node5</title>
<g id="a_Node000005"><a xlink:href="struct_motor_states.html" target="_top" xlink:title=" ">
<polygon fill="white" stroke="#bfbfbf" points="124.12,-156 54.88,-156 54.88,-136 124.12,-136 124.12,-156"/>
<text xml:space="preserve" text-anchor="middle" x="89.5" y="-142.5" font-family="Helvetica,sans-Serif" font-size="10.00">MotorStates</text>
</a>
</g>
</g>
<!-- Node5&#45;&gt;Node4 -->
<g id="edge5_Node000004_Node000005" class="edge">
<title>Node5&#45;&gt;Node4</title>
<g id="a_edge5_Node000004_Node000005"><a xlink:title=" ">
<path fill="none" stroke="#9a32cd" stroke-dasharray="5,2" d="M88.24,-124.28C87.52,-112.27 86.64,-97.74 86.07,-88.44"/>
<polygon fill="#9a32cd" stroke="#9a32cd" points="84.74,-124.26 88.84,-134.03 91.72,-123.84 84.74,-124.26"/>
</a>
</g>
<text xml:space="preserve" text-anchor="middle" x="115.98" y="-108.5" font-family="Helvetica,sans-Serif" font-size="10.00" fill="grey"> motorStates</text>
</g>
</g>
</svg>
