<?xml version="1.0" encoding="UTF-8" standalone="no"?>
<!DOCTYPE svg PUBLIC "-//W3C//DTD SVG 1.1//EN"
 "http://www.w3.org/Graphics/SVG/1.1/DTD/svg11.dtd">
<!-- Generated by graphviz version 15.1.0 (20260618.0150)
 -->
<!-- Title: StateMachine Pages: 1 -->
<svg width="320pt" height="164pt"
 viewBox="0.00 0.00 320.00 164.00" xmlns="http://www.w3.org/2000/svg" xmlns:xlink="http://www.w3.org/1999/xlink">
<g id="graph0" class="graph" transform="scale(1 1) rotate(0) translate(4 160)">
<title>StateMachine</title>
<!-- Node1 -->
<g id="Node000001" class="node">
<title>Node1</title>
<g id="a_Node000001"><a xlink:title=" ">
<polygon fill="#999999" stroke="#666666" points="125.5,-20 49.5,-20 49.5,0 125.5,0 125.5,-20"/>
<text xml:space="preserve" text-anchor="middle" x="87.5" y="-6.5" font-family="Helvetica,sans-Serif" font-size="10.00">StateMachine</text>
</a>
</g>
</g>
<!-- Node2 -->
<g id="Node000002" class="node">
<title>Node2</title>
<g id="a_Node000002"><a xlink:href="class_task.html" target="_top" xlink:title=" ">
<polygon fill="white" stroke="#bfbfbf" points="37,-156 0,-156 0,-136 37,-136 37,-156"/>
<text xml:space="preserve" text-anchor="middle" x="18.5" y="-142.5" font-family="Helvetica,sans-Serif" font-size="10.00">Task</text>
</a>
</g>
</g>
<!-- Node2&#45;&gt;Node1 -->
<g id="edge1_Node000001_Node000002" class="edge">
<title>Node2&#45;&gt;Node1</title>
<g id="a_edge1_Node000001_Node000002"><a xlink:title=" ">
<path fill="none" stroke="#63b8ff" d="M21.65,-124.22C24.66,-108.19 30.16,-85.82 39.5,-68 49.48,-48.98 66.7,-30.66 77.57,-20.13"/>
<polygon fill="#63b8ff" stroke="#63b8ff" points="18.2,-123.58 19.99,-134.02 25.11,-124.74 18.2,-123.58"/>
</a>
</g>
</g>
<!-- Node3 -->
<g id="Node000003" class="node">
<title>Node3</title>
<g id="a_Node000003"><a xlink:href="class_motor_manager.html" target="_top" xlink:title="This class controls the stepper motor.">
<polygon fill="white" stroke="#666666" points="126.62,-88 48.38,-88 48.38,-68 126.62,-68 126.62,-88"/>
<text xml:space="preserve" text-anchor="middle" x="87.5" y="-74.5" font-family="Helvetica,sans-Serif" font-size="10.00">MotorManager</text>
</a>
</g>
</g>
<!-- Node2&#45;&gt;Node3 -->
<g id="edge3_Node000003_Node000002" class="edge">
<title>Node2&#45;&gt;Node3</title>
<g id="a_edge3_Node000003_Node000002"><a xlink:title=" ">
<path fill="none" stroke="#63b8ff" d="M36.68,-127.61C49.79,-115.07 66.98,-98.63 77.63,-88.44"/>
<polygon fill="#63b8ff" stroke="#63b8ff" points="34.29,-125.06 29.48,-134.5 39.13,-130.11 34.29,-125.06"/>
</a>
</g>
</g>
<!-- Node3&#45;&gt;Node1 -->
<g id="edge2_Node000001_Node000003" class="edge">
<title>Node3&#45;&gt;Node1</title>
<g id="a_edge2_Node000001_Node000003"><a xlink:title=" ">
<path fill="none" stroke="#9a32cd" stroke-dasharray="5,2" d="M87.5,-56.28C87.5,-44.27 87.5,-29.74 87.5,-20.44"/>
<polygon fill="#9a32cd" stroke="#9a32cd" points="84,-56.03 87.5,-66.03 91,-56.03 84,-56.03"/>
</a>
</g>
<text xml:space="preserve" text-anchor="middle" x="122.38" y="-40.5" font-family="Helvetica,sans-Serif" font-size="10.00" fill="grey"> motorController</text>
</g>
<!-- Node4 -->
<g id="Node000004" class="node">
<title>Node4</title>
<g id="a_Node000004"><a xlink:href="struct_motor_states.html" target="_top" xlink:title=" ">
<polygon fill="white" stroke="#bfbfbf" points="124.12,-156 54.88,-156 54.88,-136 124.12,-136 124.12,-156"/>
<text xml:space="preserve" text-anchor="middle" x="89.5" y="-142.5" font-family="Helvetica,sans-Serif" font-size="10.00">MotorStates</text>
</a>
</g>
</g>
<!-- Node4&#45;&gt;Node3 -->
<g id="edge4_Node000003_Node000004" class="edge">
<title>Node4&#45;&gt;Node3</title>
<g id="a_edge4_Node000003_Node000004"><a xlink:title=" ">
<path fill="none" stroke="#9a32cd" stroke-dasharray="5,2" d="M88.87,-124.28C88.51,-112.27 88.07,-97.74 87.79,-88.44"/>
<polygon fill="#9a32cd" stroke="#9a32cd" points="85.37,-124.14 89.17,-134.03 92.36,-123.93 85.37,-124.14"/>
</a>
</g>
<text xml:space="preserve" text-anchor="middle" x="116.8" y="-108.5" font-family="Helvetica,sans-Serif" font-size="10.00" fill="grey"> motorStates</text>
</g>
<!-- Node5 -->
<g id="Node000005" class="node">
<title>Node5</title>
<g id="a_Node000005"><a xlink:href="class_event_manager.html" target="_top" xlink:title=" ">
<polygon fill="white" stroke="#bfbfbf" points="255,-88 176,-88 176,-68 255,-68 255,-88"/>
<text xml:space="preserve" text-anchor="middle" x="215.5" y="-74.5" font-family="Helvetica,sans-Serif" font-size="10.00">EventManager</text>
</a>
</g>
</g>
<!-- Node5&#45;&gt;Node1 -->
<g id="edge5_Node000001_Node000005" class="edge">
<title>Node5&#45;&gt;Node1</title>
<g id="a_edge5_Node000001_Node000005"><a xlink:title=" ">
<path fill="none" stroke="#9a32cd" stroke-dasharray="5,2" d="M195.6,-60.6C185.76,-53.03 173.45,-44.34 161.5,-38 148.21,-30.95 132.68,-24.97 119.29,-20.45"/>
<polygon fill="#9a32cd" stroke="#9a32cd" points="193.32,-63.26 203.33,-66.73 197.67,-57.77 193.32,-63.26"/>
</a>
</g>
<text xml:space="preserve" text-anchor="middle" x="212.46" y="-40.5" font-family="Helvetica,sans-Serif" font-size="10.00" fill="grey"> eventManager</text>
</g>
<!-- Node6 -->
<g id="Node000006" class="node">
<title>Node6</title>
<g id="a_Node000006"><a xlink:href="struct_event_manager_1_1state_transition_rule.html" target="_top" xlink:title=" ">
<polygon fill="white" stroke="#bfbfbf" points="312.38,-156 142.62,-156 142.62,-136 312.38,-136 312.38,-156"/>
<text xml:space="preserve" text-anchor="middle" x="227.5" y="-142.5" font-family="Helvetica,sans-Serif" font-size="10.00">EventManager::stateTransitionRule</text>
</a>
</g>
</g>
<!-- Node6&#45;&gt;Node5 -->
<g id="edge6_Node000005_Node000006" class="edge">
<title>Node6&#45;&gt;Node5</title>
<g id="a_edge6_Node000005_Node000006"><a xlink:title=" ">
<path fill="none" stroke="#9a32cd" stroke-dasharray="5,2" d="M223.73,-124.28C221.55,-112.27 218.91,-97.74 217.22,-88.44"/>
<polygon fill="#9a32cd" stroke="#9a32cd" points="220.28,-124.84 225.51,-134.05 227.16,-123.59 220.28,-124.84"/>
</a>
</g>
<text xml:space="preserve" text-anchor="middle" x="258.95" y="-108.5" font-family="Helvetica,sans-Serif" font-size="10.00" fill="grey"> stateTransitions</text>
</g>
</g>
</svg>
